<svg viewBox="0 0 200 200" xmlns="http://www.w3.org/2000/svg">
  <rect width="200" height="200" rx="40" fill="#0f172a"/>
  <rect x="30" y="60" width="140" height="80" rx="12" fill="#1e293b"/>
  <rect x="30" y="60" width="140" height="24" rx="12" fill="#0d9f6e"/>
  <rect x="30" y="72" width="140" height="12" fill="#0d9f6e"/>
  <text x="100" y="79" text-anchor="middle" font-family="sans-serif" 
        font-size="13" font-weight="700" fill="white">WASTED SPEND</text>
  <rect x="46" y="100" width="60" height="8" rx="4" fill="#334155"/>
  <rect x="46" y="100" width="22" height="8" rx="4" fill="#ef4444"/>
  <rect x="46" y="116" width="80" height="8" rx="4" fill="#334155"/>
  <rect x="46" y="116" width="18" height="8" rx="4" fill="#ef4444"/>
  <rect x="46" y="132" width="50" height="8" rx="4" fill="#334155"/>
  <rect x="46" y="132" width="30" height="8" rx="4" fill="#ef4444"/>
  <path d="M158 148 L142 108" stroke="#0d9f6e" stroke-width="3" 
        stroke-linecap="round"/>
  <circle cx="158" cy="148" r="8" fill="#0d9f6e"/>
  <path d="M155 148 L158 144 L161 148" fill="white"/>
</svg>
